<svg xmlns="http://www.w3.org/2000/svg" viewBox="0 0 500 200" width="500" height="200">
  <!-- Logo 7: Wordmark avec onde audio intégrée -->
  <defs>
    <linearGradient id="g7a" x1="0%" y1="0%" x2="100%" y2="0%">
      <stop offset="0%" style="stop-color:#4f46e5;stop-opacity:1" />
      <stop offset="50%" style="stop-color:#6366f1;stop-opacity:1" />
      <stop offset="100%" style="stop-color:#8b5cf6;stop-opacity:1" />
    </linearGradient>
  </defs>
  <!-- Wordmark principal -->
  <text x="250" y="105" text-anchor="middle" font-family="'Inter', 'Segoe UI', system-ui, sans-serif" font-size="72" font-weight="800" fill="url(#g7a)" letter-spacing="2">Qwillio</text>
  <!-- Onde audio sous le texte -->
  <path d="M80 140 Q100 130 110 140 Q120 150 130 140 Q140 130 150 140 Q160 155 170 140 Q180 120 190 140 Q200 165 210 140 Q220 110 230 140 Q240 170 250 140 Q260 110 270 140 Q280 165 290 140 Q300 120 310 140 Q320 155 330 140 Q340 130 350 140 Q360 150 370 140 Q380 130 390 140 Q400 150 420 140" fill="none" stroke="url(#g7a)" stroke-width="3" stroke-linecap="round" opacity="0.6"/>
  <!-- Tagline -->
  <text x="250" y="175" text-anchor="middle" font-family="'Inter', 'Segoe UI', system-ui, sans-serif" font-size="13" font-weight="500" fill="#6366f1" letter-spacing="6" opacity="0.8">AI PHONE RECEPTIONIST</text>
</svg>