<svg xmlns="http://www.w3.org/2000/svg" viewBox="0 0 400 400" width="400" height="400">
  <!-- V3-10: MOSAIC - Q composé de petits cercles/mosaïque -->
  <g transform="translate(90, 30)">
    <!-- Cercle haut -->
    <circle cx="60" cy="15" r="12" fill="#818cf8" opacity="0.5"/>
    <circle cx="90" cy="8" r="12" fill="#6366f1" opacity="0.6"/>
    <circle cx="120" cy="5" r="12" fill="#4f46e5" opacity="0.8"/>
    <circle cx="150" cy="8" r="12" fill="#6366f1" opacity="0.6"/>
    <circle cx="175" cy="18" r="12" fill="#818cf8" opacity="0.5"/>
    <!-- Rang 2 -->
    <circle cx="35" cy="42" r="12" fill="#6366f1" opacity="0.6"/>
    <circle cx="60" cy="38" r="12" fill="#4f46e5"/>
    <circle cx="170" cy="42" r="12" fill="#4f46e5"/>
    <circle cx="198" cy="48" r="12" fill="#6366f1" opacity="0.6"/>
    <!-- Rang 3 -->
    <circle cx="15" cy="72" r="12" fill="#6366f1" opacity="0.7"/>
    <circle cx="38" cy="68" r="12" fill="#4f46e5"/>
    <circle cx="195" cy="74" r="12" fill="#4f46e5"/>
    <circle cx="218" cy="78" r="12" fill="#6366f1" opacity="0.7"/>
    <!-- Côtés -->
    <circle cx="5" cy="105" r="12" fill="#4f46e5"/>
    <circle cx="222" cy="105" r="12" fill="#7c3aed"/>
    <circle cx="2" cy="138" r="12" fill="#4f46e5"/>
    <circle cx="225" cy="138" r="12" fill="#7c3aed"/>
    <circle cx="5" cy="170" r="12" fill="#4f46e5"/>
    <circle cx="222" cy="170" r="12" fill="#7c3aed"/>
    <!-- Rang bas -->
    <circle cx="15" cy="200" r="12" fill="#6366f1" opacity="0.7"/>
    <circle cx="38" cy="204" r="12" fill="#4f46e5"/>
    <circle cx="195" cy="200" r="12" fill="#7c3aed"/>
    <circle cx="218" cy="196" r="12" fill="#7c3aed" opacity="0.7"/>
    <!-- Rang 2 bas -->
    <circle cx="35" cy="230" r="12" fill="#6366f1" opacity="0.6"/>
    <circle cx="60" cy="234" r="12" fill="#6366f1"/>
    <circle cx="170" cy="230" r="12" fill="#7c3aed"/>
    <circle cx="198" cy="225" r="12" fill="#7c3aed" opacity="0.6"/>
    <!-- Bas -->
    <circle cx="60" cy="258" r="12" fill="#818cf8" opacity="0.5"/>
    <circle cx="90" cy="262" r="12" fill="#7c3aed" opacity="0.6"/>
    <circle cx="120" cy="265" r="12" fill="#8b5cf6" opacity="0.8"/>
    <circle cx="150" cy="262" r="12" fill="#8b5cf6" opacity="0.6"/>
    <circle cx="175" cy="255" r="12" fill="#8b5cf6" opacity="0.5"/>
    <!-- Queue -->
    <circle cx="200" cy="240" r="12" fill="#8b5cf6" opacity="0.7"/>
    <circle cx="222" cy="258" r="12" fill="#a855f7" opacity="0.6"/>
    <circle cx="242" cy="278" r="12" fill="#a855f7" opacity="0.4"/>
  </g>
  <!-- Wordmark -->
  <text x="200" y="370" text-anchor="middle" font-family="'Inter', system-ui, sans-serif" font-size="44" font-weight="700" fill="#1e1b4b" letter-spacing="3">Qwillio</text>
</svg>