<svg xmlns="http://www.w3.org/2000/svg" viewBox="0 0 520 200" width="520" height="200">
  <!-- 02: SOUNDWAVE WORDMARK — Audio waveform runs through the text baseline -->
  <defs>
    <linearGradient id="v402a" x1="0%" y1="0%" x2="100%" y2="0%">
      <stop offset="0%" stop-color="#1e3a5f"/>
      <stop offset="50%" stop-color="#2563eb"/>
      <stop offset="100%" stop-color="#7c3aed"/>
    </linearGradient>
  </defs>
  <!-- Wordmark -->
  <text x="260" y="110" text-anchor="middle" font-family="'Trebuchet MS', 'Gill Sans', sans-serif" font-size="82" font-weight="700" fill="url(#v402a)" letter-spacing="1">Qwillio</text>
  <!-- Waveform running underneath -->
  <path d="M30 145 Q45 145 50 145 L55 140 L60 150 L65 135 L70 155 L75 130 L80 160 L85 125 L90 165 L95 128 L100 158 L105 138 L110 148 L115 142 Q120 145 130 145 L140 145 Q150 145 160 145 L165 140 L170 150 L175 132 L180 158 L185 128 L190 162 L195 130 L200 155 L205 138 L210 148 L215 142 Q225 145 260 145 Q295 145 305 145 L310 140 L315 152 L320 133 L325 157 L330 130 L335 160 L340 132 L345 155 L350 138 L355 148 L360 142 Q370 145 380 145 L385 140 L390 150 L395 135 L400 155 L405 132 L410 158 L415 135 L420 152 L425 140 L430 148 L435 143 Q445 145 490 145" fill="none" stroke="url(#v402a)" stroke-width="2.5" stroke-linecap="round" opacity="0.5"/>
  <!-- Subtitle -->
  <text x="260" y="175" text-anchor="middle" font-family="'Trebuchet MS', sans-serif" font-size="12" font-weight="400" fill="#64748b" letter-spacing="8">AI VOICE RECEPTIONIST</text>
</svg>