<svg xmlns="http://www.w3.org/2000/svg" viewBox="0 0 400 400" width="400" height="400">
  <!-- 15: CIRCULAR WAVEFORM — Audio waveform arranged in a circle -->
  <defs>
    <linearGradient id="v415a" x1="0%" y1="0%" x2="100%" y2="100%">
      <stop offset="0%" stop-color="#dc2626"/>
      <stop offset="100%" stop-color="#f97316"/>
    </linearGradient>
  </defs>
  <!-- Waveform bars arranged radially around circle -->
  <g transform="translate(195, 165)">
    <!-- 36 bars at 10° intervals, heights vary to create waveform pattern -->
    <rect x="-3" y="-95" width="6" height="22" rx="3" fill="url(#v415a)" transform="rotate(0)" opacity="0.7"/>
    <rect x="-3" y="-98" width="6" height="30" rx="3" fill="url(#v415a)" transform="rotate(10)"/>
    <rect x="-3" y="-102" width="6" height="40" rx="3" fill="url(#v415a)" transform="rotate(20)"/>
    <rect x="-3" y="-98" width="6" height="28" rx="3" fill="url(#v415a)" transform="rotate(30)"/>
    <rect x="-3" y="-105" width="6" height="48" rx="3" fill="url(#v415a)" transform="rotate(40)"/>
    <rect x="-3" y="-110" width="6" height="58" rx="3" fill="url(#v415a)" transform="rotate(50)"/>
    <rect x="-3" y="-100" width="6" height="35" rx="3" fill="url(#v415a)" transform="rotate(60)"/>
    <rect x="-3" y="-95" width="6" height="22" rx="3" fill="url(#v415a)" transform="rotate(70)" opacity="0.8"/>
    <rect x="-3" y="-98" width="6" height="30" rx="3" fill="url(#v415a)" transform="rotate(80)"/>
    <rect x="-3" y="-108" width="6" height="52" rx="3" fill="url(#v415a)" transform="rotate(90)"/>
    <rect x="-3" y="-115" width="6" height="65" rx="3" fill="url(#v415a)" transform="rotate(100)"/>
    <rect x="-3" y="-105" width="6" height="45" rx="3" fill="url(#v415a)" transform="rotate(110)"/>
    <rect x="-3" y="-98" width="6" height="28" rx="3" fill="url(#v415a)" transform="rotate(120)"/>
    <rect x="-3" y="-95" width="6" height="20" rx="3" fill="url(#v415a)" transform="rotate(130)" opacity="0.7"/>
    <rect x="-3" y="-97" width="6" height="26" rx="3" fill="url(#v415a)" transform="rotate(140)" opacity="0.8"/>
    <rect x="-3" y="-102" width="6" height="38" rx="3" fill="url(#v415a)" transform="rotate(150)"/>
    <rect x="-3" y="-110" width="6" height="55" rx="3" fill="url(#v415a)" transform="rotate(160)"/>
    <rect x="-3" y="-108" width="6" height="50" rx="3" fill="url(#v415a)" transform="rotate(170)"/>
    <rect x="-3" y="-100" width="6" height="35" rx="3" fill="url(#v415a)" transform="rotate(180)"/>
    <rect x="-3" y="-95" width="6" height="20" rx="3" fill="url(#v415a)" transform="rotate(190)" opacity="0.7"/>
    <rect x="-3" y="-97" width="6" height="25" rx="3" fill="url(#v415a)" transform="rotate(200)" opacity="0.8"/>
    <rect x="-3" y="-105" width="6" height="45" rx="3" fill="url(#v415a)" transform="rotate(210)"/>
    <rect x="-3" y="-112" width="6" height="60" rx="3" fill="url(#v415a)" transform="rotate(220)"/>
    <rect x="-3" y="-107" width="6" height="48" rx="3" fill="url(#v415a)" transform="rotate(230)"/>
    <rect x="-3" y="-100" width="6" height="32" rx="3" fill="url(#v415a)" transform="rotate(240)"/>
    <rect x="-3" y="-95" width="6" height="22" rx="3" fill="url(#v415a)" transform="rotate(250)" opacity="0.7"/>
    <rect x="-3" y="-98" width="6" height="30" rx="3" fill="url(#v415a)" transform="rotate(260)"/>
    <rect x="-3" y="-106" width="6" height="48" rx="3" fill="url(#v415a)" transform="rotate(270)"/>
    <rect x="-3" y="-112" width="6" height="58" rx="3" fill="url(#v415a)" transform="rotate(280)"/>
    <rect x="-3" y="-105" width="6" height="42" rx="3" fill="url(#v415a)" transform="rotate(290)"/>
    <rect x="-3" y="-98" width="6" height="28" rx="3" fill="url(#v415a)" transform="rotate(300)"/>
    <rect x="-3" y="-95" width="6" height="18" rx="3" fill="url(#v415a)" transform="rotate(310)" opacity="0.6"/>
    <!-- Gap for Q tail area -->
    <rect x="-3" y="-94" width="6" height="14" rx="3" fill="url(#v415a)" transform="rotate(325)" opacity="0.4"/>
    <rect x="-3" y="-93" width="6" height="10" rx="3" fill="url(#v415a)" transform="rotate(340)" opacity="0.3"/>
    <rect x="-3" y="-95" width="6" height="18" rx="3" fill="url(#v415a)" transform="rotate(350)" opacity="0.5"/>
  </g>
  <!-- Q letter in center -->
  <text x="195" y="180" text-anchor="middle" font-family="'Georgia', serif" font-size="44" font-weight="700" fill="#991b1b">Q</text>
  <!-- Wordmark -->
  <text x="200" y="358" text-anchor="middle" font-family="'Trebuchet MS', sans-serif" font-size="44" font-weight="700" fill="#7f1d1d" letter-spacing="3">Qwillio</text>
</svg>