<svg xmlns="http://www.w3.org/2000/svg" viewBox="0 0 400 400" width="400" height="400">
  <!-- 04: SMART HANDSET — Combiné téléphonique moderne avec signal IA -->
  <defs>
    <linearGradient id="d1" x1="0%" y1="0%" x2="0%" y2="100%">
      <stop offset="0%" stop-color="#1e293b"/>
      <stop offset="100%" stop-color="#0f172a"/>
    </linearGradient>
    <linearGradient id="d2" x1="0%" y1="0%" x2="100%" y2="100%">
      <stop offset="0%" stop-color="#38bdf8"/>
      <stop offset="100%" stop-color="#0ea5e9"/>
    </linearGradient>
  </defs>
  <!-- Combiné téléphonique vertical stylisé -->
  <path d="M170 80 C170 65 185 55 200 55 C215 55 230 65 230 80 L230 115 C230 125 222 130 215 130 L185 130 C178 130 170 125 170 115 Z" fill="url(#d1)"/>
  <rect x="188" y="130" width="24" height="100" rx="4" fill="url(#d1)"/>
  <path d="M170 230 C170 245 185 255 200 255 C215 255 230 245 230 230 L230 215 C230 205 222 200 215 200 L185 200 C178 200 170 205 170 215 Z" fill="url(#d1)"/>
  <!-- Signal IA sortant du haut (ondes) -->
  <path d="M240 90 C255 80 255 65 240 55" fill="none" stroke="url(#d2)" stroke-width="4" stroke-linecap="round"/>
  <path d="M255 98 C278 82 278 55 255 40" fill="none" stroke="url(#d2)" stroke-width="3.5" stroke-linecap="round" opacity="0.7"/>
  <path d="M270 105 C300 85 300 48 270 28" fill="none" stroke="url(#d2)" stroke-width="3" stroke-linecap="round" opacity="0.4"/>
  <!-- Petit point lumineux AI sur le combiné -->
  <circle cx="200" cy="165" r="6" fill="url(#d2)"/>
  <circle cx="200" cy="165" r="10" fill="url(#d2)" opacity="0.2"/>
  <!-- Wordmark -->
  <text x="200" y="330" text-anchor="middle" font-family="'Verdana', sans-serif" font-size="46" font-weight="700" fill="#0f172a" letter-spacing="3">Qwillio</text>
  <text x="200" y="362" text-anchor="middle" font-family="'Verdana', sans-serif" font-size="11" fill="#0ea5e9" letter-spacing="6">SMART VOICE AI</text>
</svg>