<svg xmlns="http://www.w3.org/2000/svg" viewBox="0 0 400 400" width="400" height="400">
  <!-- 19: CONNECT DOTS — Réseau de points interconnectés (leads, contacts, réseau) -->
  <defs>
    <linearGradient id="s1" x1="0%" y1="0%" x2="100%" y2="100%">
      <stop offset="0%" stop-color="#0d9488"/>
      <stop offset="100%" stop-color="#14b8a6"/>
    </linearGradient>
  </defs>
  <!-- Lignes de connexion -->
  <g stroke="#99f6e4" stroke-width="1.5" opacity="0.4">
    <line x1="200" y1="65" x2="290" y2="110"/>
    <line x1="200" y1="65" x2="130" y2="125"/>
    <line x1="290" y1="110" x2="310" y2="195"/>
    <line x1="130" y1="125" x2="100" y2="200"/>
    <line x1="310" y1="195" x2="280" y2="265"/>
    <line x1="100" y1="200" x2="140" y2="270"/>
    <line x1="280" y1="265" x2="200" y2="285"/>
    <line x1="140" y1="270" x2="200" y2="285"/>
    <line x1="200" y1="65" x2="200" y2="175"/>
    <line x1="130" y1="125" x2="290" y2="110"/>
    <line x1="100" y1="200" x2="310" y2="195"/>
    <line x1="200" y1="175" x2="290" y2="110"/>
    <line x1="200" y1="175" x2="130" y2="125"/>
    <line x1="200" y1="175" x2="310" y2="195"/>
    <line x1="200" y1="175" x2="100" y2="200"/>
    <line x1="200" y1="175" x2="280" y2="265"/>
    <line x1="200" y1="175" x2="140" y2="270"/>
  </g>
  <!-- Nœuds -->
  <circle cx="200" cy="65" r="10" fill="url(#s1)"/>
  <circle cx="290" cy="110" r="8" fill="#14b8a6"/>
  <circle cx="130" cy="125" r="8" fill="#14b8a6"/>
  <circle cx="310" cy="195" r="7" fill="#2dd4bf"/>
  <circle cx="100" cy="200" r="7" fill="#2dd4bf"/>
  <circle cx="280" cy="265" r="8" fill="#14b8a6"/>
  <circle cx="140" cy="270" r="8" fill="#14b8a6"/>
  <circle cx="200" cy="285" r="9" fill="url(#s1)"/>
  <!-- Nœud central (le hub IA) — plus grand -->
  <circle cx="200" cy="175" r="16" fill="url(#s1)"/>
  <circle cx="200" cy="175" r="7" fill="white"/>
  <!-- Wordmark -->
  <text x="200" y="355" text-anchor="middle" font-family="'Trebuchet MS', sans-serif" font-size="48" font-weight="700" fill="#134e4a" letter-spacing="3">Qwillio</text>
</svg>