<svg xmlns="http://www.w3.org/2000/svg" viewBox="0 0 400 400" width="400" height="400">
  <!-- BUBBLE V3: Rectangles arrondis au lieu d'ellipses, plus moderne/app -->
  <defs>
    <linearGradient id="bb3a" x1="0%" y1="0%" x2="100%" y2="100%">
      <stop offset="0%" stop-color="#0d9488"/><stop offset="100%" stop-color="#14b8a6"/>
    </linearGradient>
    <linearGradient id="bb3b" x1="0%" y1="0%" x2="100%" y2="100%">
      <stop offset="0%" stop-color="#0891b2"/><stop offset="100%" stop-color="#06b6d4"/>
    </linearGradient>
  </defs>
  <!-- Bulle gauche (rectangle arrondi) -->
  <rect x="75" y="85" width="155" height="110" rx="24" fill="url(#bb3a)"/>
  <polygon points="110,195 95,235 140,195" fill="url(#bb3a)"/>
  <!-- Bulle droite -->
  <rect x="185" y="72" width="140" height="100" rx="22" fill="url(#bb3b)" opacity="0.85"/>
  <polygon points="280,172 305,208 260,172" fill="url(#bb3b)" opacity="0.85"/>
  <!-- Audio bars -->
  <rect x="100" y="120" width="5" height="40" rx="2.5" fill="white" opacity="0.8"/>
  <rect x="112" y="112" width="5" height="56" rx="2.5" fill="white" opacity="0.7"/>
  <rect x="124" y="118" width="5" height="44" rx="2.5" fill="white" opacity="0.8"/>
  <rect x="136" y="124" width="5" height="32" rx="2.5" fill="white" opacity="0.7"/>
  <rect x="148" y="128" width="5" height="24" rx="2.5" fill="white" opacity="0.6"/>
  <!-- Dots IA -->
  <circle cx="232" cy="122" r="5" fill="white" opacity="0.8"/>
  <circle cx="255" cy="122" r="5" fill="white" opacity="0.8"/>
  <circle cx="278" cy="122" r="5" fill="white" opacity="0.8"/>
  <text x="200" y="325" text-anchor="middle" font-family="'Trebuchet MS', sans-serif" font-size="48" font-weight="700" fill="#134e4a" letter-spacing="2">Qwillio</text>
  <text x="200" y="358" text-anchor="middle" font-family="'Trebuchet MS', sans-serif" font-size="11" fill="#0d9488" letter-spacing="6">AI RECEPTIONIST</text>
</svg>