<svg xmlns="http://www.w3.org/2000/svg" viewBox="0 0 400 400" width="400" height="400">
  <!-- DOTS V5: Dégradé multicolore sur les nœuds, fond sombre -->
  <rect width="400" height="400" rx="20" fill="#0f172a"/>
  <g stroke="rgba(56,189,248,0.2)" stroke-width="1.2">
    <line x1="200" y1="60" x2="285" y2="105"/><line x1="200" y1="60" x2="125" y2="115"/>
    <line x1="285" y1="105" x2="310" y2="190"/><line x1="125" y1="115" x2="95" y2="195"/>
    <line x1="310" y1="190" x2="275" y2="260"/><line x1="95" y1="195" x2="140" y2="265"/>
    <line x1="275" y1="260" x2="200" y2="282"/><line x1="140" y1="265" x2="200" y2="282"/>
    <line x1="200" y1="170" x2="200" y2="60"/><line x1="200" y1="170" x2="285" y2="105"/>
    <line x1="200" y1="170" x2="125" y2="115"/><line x1="200" y1="170" x2="310" y2="190"/>
    <line x1="200" y1="170" x2="95" y2="195"/><line x1="200" y1="170" x2="275" y2="260"/>
    <line x1="200" y1="170" x2="140" y2="265"/><line x1="200" y1="170" x2="200" y2="282"/>
  </g>
  <circle cx="200" cy="60" r="9" fill="#38bdf8"/>
  <circle cx="285" cy="105" r="7" fill="#818cf8"/>
  <circle cx="125" cy="115" r="7" fill="#34d399"/>
  <circle cx="310" cy="190" r="6" fill="#a78bfa"/>
  <circle cx="95" cy="195" r="6" fill="#6ee7b7"/>
  <circle cx="275" cy="260" r="7" fill="#818cf8"/>
  <circle cx="140" cy="265" r="7" fill="#34d399"/>
  <circle cx="200" cy="282" r="9" fill="#38bdf8"/>
  <circle cx="200" cy="170" r="18" fill="#0ea5e9"/>
  <circle cx="200" cy="170" r="7" fill="#0f172a"/>
  <circle cx="200" cy="170" r="3" fill="#38bdf8"/>
  <text x="200" y="350" text-anchor="middle" font-family="'Trebuchet MS', sans-serif" font-size="44" font-weight="700" fill="#e2e8f0" letter-spacing="4">Qwillio</text>
</svg>