<svg xmlns="http://www.w3.org/2000/svg" viewBox="0 0 400 400" width="400" height="400">
  <!-- DOTS V2: Palette indigo/violet au lieu de teal -->
  <defs>
    <linearGradient id="dt2" x1="0%" y1="0%" x2="100%" y2="100%">
      <stop offset="0%" stop-color="#6366f1"/>
      <stop offset="100%" stop-color="#8b5cf6"/>
    </linearGradient>
  </defs>
  <g stroke="#c7d2fe" stroke-width="1.3" opacity="0.35">
    <line x1="200" y1="60" x2="290" y2="105"/><line x1="200" y1="60" x2="125" y2="115"/>
    <line x1="290" y1="105" x2="315" y2="190"/><line x1="125" y1="115" x2="95" y2="195"/>
    <line x1="315" y1="190" x2="278" y2="260"/><line x1="95" y1="195" x2="138" y2="265"/>
    <line x1="278" y1="260" x2="200" y2="282"/><line x1="138" y1="265" x2="200" y2="282"/>
    <line x1="200" y1="170" x2="200" y2="60"/><line x1="200" y1="170" x2="290" y2="105"/>
    <line x1="200" y1="170" x2="125" y2="115"/><line x1="200" y1="170" x2="315" y2="190"/>
    <line x1="200" y1="170" x2="95" y2="195"/><line x1="200" y1="170" x2="278" y2="260"/>
    <line x1="200" y1="170" x2="138" y2="265"/><line x1="125" y1="115" x2="290" y2="105"/>
    <line x1="95" y1="195" x2="315" y2="190"/>
  </g>
  <circle cx="200" cy="60" r="9" fill="url(#dt2)"/>
  <circle cx="290" cy="105" r="7" fill="#818cf8"/>
  <circle cx="125" cy="115" r="7" fill="#818cf8"/>
  <circle cx="315" cy="190" r="6" fill="#a5b4fc"/>
  <circle cx="95" cy="195" r="6" fill="#a5b4fc"/>
  <circle cx="278" cy="260" r="7" fill="#818cf8"/>
  <circle cx="138" cy="265" r="7" fill="#818cf8"/>
  <circle cx="200" cy="282" r="9" fill="url(#dt2)"/>
  <circle cx="200" cy="170" r="18" fill="url(#dt2)"/>
  <circle cx="200" cy="170" r="7" fill="white"/>
  <text x="200" y="355" text-anchor="middle" font-family="'Georgia', serif" font-size="48" font-weight="700" fill="#1e1b4b" letter-spacing="3">Qwillio</text>
</svg>