<svg xmlns="http://www.w3.org/2000/svg" viewBox="0 0 400 400" width="400" height="400">
  <!-- DOTS V4: Nœuds de tailles très variées, lignes courbes -->
  <defs>
    <linearGradient id="dt4" x1="0%" y1="0%" x2="100%" y2="100%">
      <stop offset="0%" stop-color="#0d9488"/>
      <stop offset="100%" stop-color="#14b8a6"/>
    </linearGradient>
  </defs>
  <g stroke="#99f6e4" stroke-width="1" opacity="0.35">
    <path d="M200 60 Q250 80 285 115" fill="none"/>
    <path d="M200 60 Q150 80 120 120" fill="none"/>
    <path d="M285 115 Q315 160 305 210" fill="none"/>
    <path d="M120 120 Q85 165 95 215" fill="none"/>
    <path d="M305 210 Q290 260 245 280" fill="none"/>
    <path d="M95 215 Q110 265 155 280" fill="none"/>
    <path d="M245 280 Q220 295 200 290" fill="none"/>
    <path d="M155 280 Q180 295 200 290" fill="none"/>
    <path d="M200 170 Q200 110 200 60" fill="none"/>
    <path d="M200 170 Q245 140 285 115" fill="none"/>
    <path d="M200 170 Q155 140 120 120" fill="none"/>
    <path d="M200 170 Q260 180 305 210" fill="none"/>
    <path d="M200 170 Q140 180 95 215" fill="none"/>
    <path d="M200 170 Q230 230 245 280" fill="none"/>
    <path d="M200 170 Q170 230 155 280" fill="none"/>
  </g>
  <circle cx="200" cy="60" r="12" fill="url(#dt4)"/>
  <circle cx="285" cy="115" r="6" fill="#2dd4bf"/>
  <circle cx="120" cy="120" r="9" fill="#14b8a6"/>
  <circle cx="305" cy="210" r="5" fill="#5eead4"/>
  <circle cx="95" cy="215" r="7" fill="#2dd4bf"/>
  <circle cx="245" cy="280" r="10" fill="#14b8a6"/>
  <circle cx="155" cy="280" r="6" fill="#2dd4bf"/>
  <circle cx="200" cy="290" r="8" fill="url(#dt4)"/>
  <!-- Hub extra grand -->
  <circle cx="200" cy="170" r="24" fill="url(#dt4)"/>
  <circle cx="200" cy="170" r="10" fill="white"/>
  <circle cx="200" cy="170" r="4" fill="url(#dt4)"/>
  <text x="200" y="365" text-anchor="middle" font-family="'Georgia', serif" font-size="46" font-weight="700" fill="#134e4a" letter-spacing="3">Qwillio</text>
</svg>