<svg xmlns="http://www.w3.org/2000/svg" viewBox="0 0 400 400" width="400" height="400">
  <!-- PIXEL V4: Diamond/rotated squares, gradient fill -->
  <defs>
    <linearGradient id="px4" x1="0%" y1="0%" x2="100%" y2="100%">
      <stop offset="0%" stop-color="#4f46e5"/>
      <stop offset="50%" stop-color="#7c3aed"/>
      <stop offset="100%" stop-color="#a855f7"/>
    </linearGradient>
  </defs>
  <g transform="translate(95, 40)">
    <!-- Row 1 -->
    <rect x="60" y="0" width="16" height="16" rx="2" fill="#6366f1" opacity="0.5" transform="rotate(45,68,8)"/>
    <rect x="85" y="0" width="16" height="16" rx="2" fill="#4f46e5" opacity="0.7" transform="rotate(45,93,8)"/>
    <rect x="110" y="0" width="16" height="16" rx="2" fill="#4f46e5" opacity="0.8" transform="rotate(45,118,8)"/>
    <rect x="135" y="0" width="16" height="16" rx="2" fill="#6366f1" opacity="0.6" transform="rotate(45,143,8)"/>
    <!-- Row 2 -->
    <rect x="30" y="25" width="16" height="16" rx="2" fill="#4f46e5" opacity="0.7" transform="rotate(45,38,33)"/>
    <rect x="55" y="25" width="16" height="16" rx="2" fill="#4338ca" transform="rotate(45,63,33)"/>
    <rect x="130" y="25" width="16" height="16" rx="2" fill="#4338ca" transform="rotate(45,138,33)"/>
    <rect x="155" y="25" width="16" height="16" rx="2" fill="#4f46e5" opacity="0.7" transform="rotate(45,163,33)"/>
    <!-- Row 3 -->
    <rect x="5" y="50" width="16" height="16" rx="2" fill="#4f46e5" opacity="0.8" transform="rotate(45,13,58)"/>
    <rect x="30" y="50" width="16" height="16" rx="2" fill="#4338ca" transform="rotate(45,38,58)"/>
    <rect x="155" y="50" width="16" height="16" rx="2" fill="#4338ca" transform="rotate(45,163,58)"/>
    <rect x="180" y="50" width="16" height="16" rx="2" fill="#4f46e5" opacity="0.8" transform="rotate(45,188,58)"/>
    <!-- Row 4 -->
    <rect x="0" y="75" width="16" height="16" rx="2" fill="#4338ca" transform="rotate(45,8,83)"/>
    <rect x="185" y="75" width="16" height="16" rx="2" fill="#6d28d9" transform="rotate(45,193,83)"/>
    <!-- Row 5 -->
    <rect x="0" y="100" width="16" height="16" rx="2" fill="#4338ca" transform="rotate(45,8,108)"/>
    <rect x="185" y="100" width="16" height="16" rx="2" fill="#7c3aed" transform="rotate(45,193,108)"/>
    <!-- Row 6 -->
    <rect x="0" y="125" width="16" height="16" rx="2" fill="#4f46e5" transform="rotate(45,8,133)"/>
    <rect x="185" y="125" width="16" height="16" rx="2" fill="#7c3aed" transform="rotate(45,193,133)"/>
    <!-- Row 7 -->
    <rect x="5" y="150" width="16" height="16" rx="2" fill="#4f46e5" opacity="0.8" transform="rotate(45,13,158)"/>
    <rect x="30" y="150" width="16" height="16" rx="2" fill="#4338ca" transform="rotate(45,38,158)"/>
    <rect x="155" y="150" width="16" height="16" rx="2" fill="#8b5cf6" transform="rotate(45,163,158)"/>
    <rect x="180" y="150" width="16" height="16" rx="2" fill="#8b5cf6" opacity="0.8" transform="rotate(45,188,158)"/>
    <!-- Row 8 -->
    <rect x="30" y="175" width="16" height="16" rx="2" fill="#6366f1" opacity="0.7" transform="rotate(45,38,183)"/>
    <rect x="55" y="175" width="16" height="16" rx="2" fill="#4f46e5" transform="rotate(45,63,183)"/>
    <rect x="130" y="175" width="16" height="16" rx="2" fill="#8b5cf6" transform="rotate(45,138,183)"/>
    <rect x="155" y="175" width="16" height="16" rx="2" fill="#8b5cf6" opacity="0.7" transform="rotate(45,163,183)"/>
    <!-- Row 9 + tail -->
    <rect x="60" y="200" width="16" height="16" rx="2" fill="#818cf8" opacity="0.5" transform="rotate(45,68,208)"/>
    <rect x="85" y="200" width="16" height="16" rx="2" fill="#6366f1" opacity="0.7" transform="rotate(45,93,208)"/>
    <rect x="110" y="200" width="16" height="16" rx="2" fill="#8b5cf6" opacity="0.8" transform="rotate(45,118,208)"/>
    <rect x="135" y="200" width="16" height="16" rx="2" fill="#a78bfa" opacity="0.6" transform="rotate(45,143,208)"/>
    <rect x="165" y="200" width="16" height="16" rx="2" fill="#a855f7" transform="rotate(45,173,208)"/>
    <!-- Tail -->
    <rect x="190" y="225" width="16" height="16" rx="2" fill="#c084fc" opacity="0.9" transform="rotate(45,198,233)"/>
    <rect x="215" y="250" width="16" height="16" rx="2" fill="#c084fc" opacity="0.7" transform="rotate(45,223,258)"/>
  </g>
  <text x="200" y="365" text-anchor="middle" font-family="'Georgia', serif" font-size="42" font-weight="700" fill="#312e81" letter-spacing="3">Qwillio</text>
</svg>