<svg xmlns="http://www.w3.org/2000/svg" viewBox="0 0 400 400" width="400" height="400">
  <!-- PIXEL V5: Multicolor rainbow gradient, filled Q (more pixels inside) -->
  <g transform="translate(95, 35)">
    <!-- Row 1 -->
    <rect x="60" y="0" width="18" height="18" rx="3" fill="#ef4444" opacity="0.6"/>
    <rect x="82" y="0" width="18" height="18" rx="3" fill="#f97316" opacity="0.7"/>
    <rect x="104" y="0" width="18" height="18" rx="3" fill="#eab308" opacity="0.8"/>
    <rect x="126" y="0" width="18" height="18" rx="3" fill="#22c55e" opacity="0.7"/>
    <!-- Row 2 -->
    <rect x="36" y="22" width="18" height="18" rx="3" fill="#ef4444" opacity="0.7"/>
    <rect x="58" y="22" width="18" height="18" rx="3" fill="#f97316"/>
    <rect x="80" y="22" width="18" height="18" rx="3" fill="#f97316" opacity="0.4"/>
    <rect x="102" y="22" width="18" height="18" rx="3" fill="#eab308" opacity="0.4"/>
    <rect x="124" y="22" width="18" height="18" rx="3" fill="#22c55e"/>
    <rect x="146" y="22" width="18" height="18" rx="3" fill="#06b6d4" opacity="0.7"/>
    <!-- Row 3 -->
    <rect x="10" y="44" width="18" height="18" rx="3" fill="#dc2626" opacity="0.8"/>
    <rect x="32" y="44" width="18" height="18" rx="3" fill="#ef4444"/>
    <rect x="54" y="44" width="18" height="18" rx="3" fill="#f97316" opacity="0.3"/>
    <rect x="124" y="44" width="18" height="18" rx="3" fill="#22c55e" opacity="0.3"/>
    <rect x="146" y="44" width="18" height="18" rx="3" fill="#06b6d4"/>
    <rect x="168" y="44" width="18" height="18" rx="3" fill="#3b82f6" opacity="0.8"/>
    <!-- Row 4 -->
    <rect x="0" y="66" width="18" height="18" rx="3" fill="#dc2626"/>
    <rect x="22" y="66" width="18" height="18" rx="3" fill="#dc2626" opacity="0.3"/>
    <rect x="156" y="66" width="18" height="18" rx="3" fill="#3b82f6" opacity="0.3"/>
    <rect x="178" y="66" width="18" height="18" rx="3" fill="#4f46e5"/>
    <!-- Row 5 -->
    <rect x="0" y="88" width="18" height="18" rx="3" fill="#b91c1c"/>
    <rect x="178" y="88" width="18" height="18" rx="3" fill="#6366f1"/>
    <!-- Row 6 -->
    <rect x="0" y="110" width="18" height="18" rx="3" fill="#b91c1c"/>
    <rect x="178" y="110" width="18" height="18" rx="3" fill="#7c3aed"/>
    <!-- Row 7 -->
    <rect x="0" y="132" width="18" height="18" rx="3" fill="#dc2626"/>
    <rect x="22" y="132" width="18" height="18" rx="3" fill="#dc2626" opacity="0.3"/>
    <rect x="156" y="132" width="18" height="18" rx="3" fill="#8b5cf6" opacity="0.3"/>
    <rect x="178" y="132" width="18" height="18" rx="3" fill="#8b5cf6"/>
    <!-- Row 8 -->
    <rect x="10" y="154" width="18" height="18" rx="3" fill="#dc2626" opacity="0.8"/>
    <rect x="32" y="154" width="18" height="18" rx="3" fill="#ef4444"/>
    <rect x="54" y="154" width="18" height="18" rx="3" fill="#f97316" opacity="0.3"/>
    <rect x="124" y="154" width="18" height="18" rx="3" fill="#a855f7" opacity="0.3"/>
    <rect x="146" y="154" width="18" height="18" rx="3" fill="#a855f7"/>
    <rect x="168" y="154" width="18" height="18" rx="3" fill="#c084fc" opacity="0.8"/>
    <!-- Row 9 -->
    <rect x="36" y="176" width="18" height="18" rx="3" fill="#ef4444" opacity="0.7"/>
    <rect x="58" y="176" width="18" height="18" rx="3" fill="#f97316"/>
    <rect x="80" y="176" width="18" height="18" rx="3" fill="#eab308" opacity="0.4"/>
    <rect x="102" y="176" width="18" height="18" rx="3" fill="#a855f7" opacity="0.4"/>
    <rect x="124" y="176" width="18" height="18" rx="3" fill="#c084fc"/>
    <rect x="146" y="176" width="18" height="18" rx="3" fill="#d946ef" opacity="0.7"/>
    <!-- Row 10 + tail -->
    <rect x="60" y="198" width="18" height="18" rx="3" fill="#f97316" opacity="0.6"/>
    <rect x="82" y="198" width="18" height="18" rx="3" fill="#eab308" opacity="0.7"/>
    <rect x="104" y="198" width="18" height="18" rx="3" fill="#a855f7" opacity="0.8"/>
    <rect x="126" y="198" width="18" height="18" rx="3" fill="#c084fc" opacity="0.7"/>
    <rect x="152" y="198" width="18" height="18" rx="3" fill="#d946ef"/>
    <!-- Tail -->
    <rect x="174" y="220" width="18" height="18" rx="3" fill="#ec4899" opacity="0.9"/>
    <rect x="196" y="242" width="18" height="18" rx="3" fill="#f472b6" opacity="0.7"/>
  </g>
  <text x="200" y="360" text-anchor="middle" font-family="'JetBrains Mono', 'Fira Code', monospace" font-size="38" font-weight="700" fill="#1e1b4b" letter-spacing="4">Qwillio</text>
</svg>