<svg xmlns="http://www.w3.org/2000/svg" viewBox="0 0 500 120" width="500" height="120">
  <!-- Pixel - Horizontal -->
  <g transform="translate(8, 8)">
    <!-- Row 1 -->
    <rect x="26" y="0" width="11" height="11" rx="2" fill="#818cf8" opacity="0.5"/>
    <rect x="40" y="0" width="11" height="11" rx="2" fill="#6366f1" opacity="0.7"/>
    <rect x="54" y="0" width="11" height="11" rx="2" fill="#6366f1" opacity="0.8"/>
    <rect x="68" y="0" width="11" height="11" rx="2" fill="#818cf8" opacity="0.6"/>
    <!-- Row 2 -->
    <rect x="12" y="14" width="11" height="11" rx="2" fill="#6366f1" opacity="0.7"/>
    <rect x="26" y="14" width="11" height="11" rx="2" fill="#4f46e5"/>
    <rect x="68" y="14" width="11" height="11" rx="2" fill="#4f46e5"/>
    <rect x="82" y="14" width="11" height="11" rx="2" fill="#6366f1" opacity="0.7"/>
    <!-- Row 3 -->
    <rect x="0" y="28" width="11" height="11" rx="2" fill="#6366f1" opacity="0.8"/>
    <rect x="14" y="28" width="11" height="11" rx="2" fill="#4f46e5"/>
    <rect x="82" y="28" width="11" height="11" rx="2" fill="#4f46e5"/>
    <rect x="96" y="28" width="11" height="11" rx="2" fill="#6366f1" opacity="0.8"/>
    <!-- Row 4 -->
    <rect x="0" y="42" width="11" height="11" rx="2" fill="#4f46e5"/>
    <rect x="96" y="42" width="11" height="11" rx="2" fill="#7c3aed"/>
    <!-- Row 5 -->
    <rect x="0" y="56" width="11" height="11" rx="2" fill="#4f46e5"/>
    <rect x="96" y="56" width="11" height="11" rx="2" fill="#7c3aed"/>
    <!-- Row 6 -->
    <rect x="0" y="70" width="11" height="11" rx="2" fill="#4f46e5"/>
    <rect x="14" y="70" width="11" height="11" rx="2" fill="#4f46e5"/>
    <rect x="82" y="70" width="11" height="11" rx="2" fill="#7c3aed"/>
    <rect x="96" y="70" width="11" height="11" rx="2" fill="#7c3aed" opacity="0.8"/>
    <!-- Row 7 -->
    <rect x="12" y="84" width="11" height="11" rx="2" fill="#6366f1" opacity="0.7"/>
    <rect x="26" y="84" width="11" height="11" rx="2" fill="#4f46e5"/>
    <rect x="68" y="84" width="11" height="11" rx="2" fill="#7c3aed"/>
    <rect x="82" y="84" width="11" height="11" rx="2" fill="#7c3aed" opacity="0.7"/>
    <!-- Row 8 + tail -->
    <rect x="26" y="98" width="11" height="11" rx="2" fill="#818cf8" opacity="0.5"/>
    <rect x="40" y="98" width="11" height="11" rx="2" fill="#6366f1" opacity="0.7"/>
    <rect x="54" y="98" width="11" height="11" rx="2" fill="#7c3aed" opacity="0.8"/>
    <rect x="68" y="98" width="11" height="11" rx="2" fill="#818cf8" opacity="0.6"/>
    <rect x="84" y="98" width="11" height="11" rx="2" fill="#8b5cf6"/>
  </g>
  <!-- Text -->
  <text x="155" y="72" font-family="'JetBrains Mono', 'Fira Code', monospace" font-size="42" font-weight="700" fill="#312e81" letter-spacing="3">Qwillio</text>
</svg>