<svg xmlns="http://www.w3.org/2000/svg" viewBox="0 0 400 400" width="400" height="400">
  <!-- PIXEL V3: Dark background, neon glow pixels -->
  <rect width="400" height="400" rx="20" fill="#0f172a"/>
  <defs>
    <filter id="px3gl">
      <feGaussianBlur stdDeviation="3" result="b"/>
      <feMerge><feMergeNode in="b"/><feMergeNode in="SourceGraphic"/></feMerge>
    </filter>
  </defs>
  <g transform="translate(95, 40)" filter="url(#px3gl)">
    <!-- Row 1 -->
    <rect x="60" y="0" width="18" height="18" rx="2" fill="#a5b4fc" opacity="0.6"/>
    <rect x="83" y="0" width="18" height="18" rx="2" fill="#818cf8" opacity="0.8"/>
    <rect x="106" y="0" width="18" height="18" rx="2" fill="#818cf8" opacity="0.9"/>
    <rect x="129" y="0" width="18" height="18" rx="2" fill="#a5b4fc" opacity="0.7"/>
    <!-- Row 2 -->
    <rect x="32" y="23" width="18" height="18" rx="2" fill="#818cf8" opacity="0.8"/>
    <rect x="55" y="23" width="18" height="18" rx="2" fill="#6366f1"/>
    <rect x="124" y="23" width="18" height="18" rx="2" fill="#6366f1"/>
    <rect x="147" y="23" width="18" height="18" rx="2" fill="#818cf8" opacity="0.8"/>
    <!-- Row 3 -->
    <rect x="5" y="46" width="18" height="18" rx="2" fill="#818cf8" opacity="0.9"/>
    <rect x="28" y="46" width="18" height="18" rx="2" fill="#6366f1"/>
    <rect x="147" y="46" width="18" height="18" rx="2" fill="#6366f1"/>
    <rect x="170" y="46" width="18" height="18" rx="2" fill="#818cf8" opacity="0.9"/>
    <!-- Row 4 -->
    <rect x="0" y="69" width="18" height="18" rx="2" fill="#6366f1"/>
    <rect x="175" y="69" width="18" height="18" rx="2" fill="#7c3aed"/>
    <!-- Row 5 -->
    <rect x="0" y="92" width="18" height="18" rx="2" fill="#6366f1"/>
    <rect x="175" y="92" width="18" height="18" rx="2" fill="#7c3aed"/>
    <!-- Row 6 -->
    <rect x="0" y="115" width="18" height="18" rx="2" fill="#6366f1"/>
    <rect x="175" y="115" width="18" height="18" rx="2" fill="#8b5cf6"/>
    <!-- Row 7 -->
    <rect x="5" y="138" width="18" height="18" rx="2" fill="#818cf8" opacity="0.9"/>
    <rect x="28" y="138" width="18" height="18" rx="2" fill="#6366f1"/>
    <rect x="147" y="138" width="18" height="18" rx="2" fill="#8b5cf6"/>
    <rect x="170" y="138" width="18" height="18" rx="2" fill="#a78bfa" opacity="0.9"/>
    <!-- Row 8 -->
    <rect x="32" y="161" width="18" height="18" rx="2" fill="#818cf8" opacity="0.8"/>
    <rect x="55" y="161" width="18" height="18" rx="2" fill="#6366f1"/>
    <rect x="124" y="161" width="18" height="18" rx="2" fill="#8b5cf6"/>
    <rect x="147" y="161" width="18" height="18" rx="2" fill="#a78bfa" opacity="0.8"/>
    <!-- Row 9 + tail -->
    <rect x="60" y="184" width="18" height="18" rx="2" fill="#a5b4fc" opacity="0.6"/>
    <rect x="83" y="184" width="18" height="18" rx="2" fill="#818cf8" opacity="0.8"/>
    <rect x="106" y="184" width="18" height="18" rx="2" fill="#8b5cf6" opacity="0.9"/>
    <rect x="129" y="184" width="18" height="18" rx="2" fill="#a78bfa" opacity="0.7"/>
    <rect x="155" y="184" width="18" height="18" rx="2" fill="#a855f7"/>
    <!-- Tail -->
    <rect x="178" y="207" width="18" height="18" rx="2" fill="#c084fc" opacity="0.9"/>
    <rect x="201" y="230" width="18" height="18" rx="2" fill="#c084fc" opacity="0.7"/>
  </g>
  <text x="200" y="355" text-anchor="middle" font-family="'JetBrains Mono', 'Fira Code', monospace" font-size="38" font-weight="700" fill="#e0e7ff" letter-spacing="4">Qwillio</text>
  <text x="200" y="382" text-anchor="middle" font-family="'JetBrains Mono', monospace" font-size="10" fill="#818cf8" letter-spacing="6">AI RECEPTIONIST</text>
</svg>