<svg xmlns="http://www.w3.org/2000/svg" viewBox="0 0 32 32" width="32" height="32">
  <!-- Pixel - Favicon -->
  <!-- Row 1 -->
  <rect x="9" y="1" width="4" height="4" rx="1" fill="#818cf8" opacity="0.6"/>
  <rect x="14" y="1" width="4" height="4" rx="1" fill="#6366f1" opacity="0.8"/>
  <rect x="19" y="1" width="4" height="4" rx="1" fill="#818cf8" opacity="0.6"/>
  <!-- Row 2 -->
  <rect x="4" y="6" width="4" height="4" rx="1" fill="#6366f1" opacity="0.7"/>
  <rect x="24" y="6" width="4" height="4" rx="1" fill="#6366f1" opacity="0.7"/>
  <!-- Row 3 -->
  <rect x="2" y="11" width="4" height="4" rx="1" fill="#4f46e5"/>
  <rect x="26" y="11" width="4" height="4" rx="1" fill="#7c3aed"/>
  <!-- Row 4 -->
  <rect x="2" y="16" width="4" height="4" rx="1" fill="#4f46e5"/>
  <rect x="26" y="16" width="4" height="4" rx="1" fill="#7c3aed"/>
  <!-- Row 5 -->
  <rect x="4" y="21" width="4" height="4" rx="1" fill="#6366f1" opacity="0.7"/>
  <rect x="24" y="21" width="4" height="4" rx="1" fill="#8b5cf6" opacity="0.7"/>
  <!-- Row 6 + tail -->
  <rect x="9" y="26" width="4" height="4" rx="1" fill="#818cf8" opacity="0.6"/>
  <rect x="14" y="26" width="4" height="4" rx="1" fill="#7c3aed" opacity="0.8"/>
  <rect x="19" y="26" width="4" height="4" rx="1" fill="#8b5cf6" opacity="0.6"/>
  <rect x="24" y="26" width="4" height="4" rx="1" fill="#a855f7"/>
</svg>