<svg xmlns="http://www.w3.org/2000/svg" viewBox="0 0 32 32" width="32" height="32">
  <defs>
    <linearGradient id="a" x1="0%" y1="0%" x2="100%" y2="100%"><stop offset="0%" stop-color="#6366f1"/><stop offset="100%" stop-color="#4f46e5"/></linearGradient>
    <linearGradient id="b" x1="0%" y1="0%" x2="100%" y2="100%"><stop offset="0%" stop-color="#a855f7"/><stop offset="100%" stop-color="#9333ea"/></linearGradient>
    <clipPath id="c"><circle cx="12.5" cy="16" r="11"/></clipPath>
  </defs>
  <circle cx="12.5" cy="16" r="11" fill="url(#a)"/>
  <circle cx="19.5" cy="16" r="11" fill="url(#b)"/>
  <circle cx="19.5" cy="16" r="11" fill="#4c1d95" opacity="0.55" clip-path="url(#c)"/>
  <g transform="translate(16 17) scale(0.0625)">
    <path fill="#ffffff" d="M-98.53 71.34L-98.53 71.34Q-117.36 71.34-132.62 63.09Q-147.88 54.83-156.79 38.92Q-165.69 23.01-165.69 0.09L-165.69 0.09Q-165.69-23.01-156.79-38.96Q-147.88-54.92-132.62-63.13Q-117.36-71.34-98.53-71.34L-98.53-71.34Q-79.69-71.34-64.48-63.13Q-49.26-54.92-40.31-38.96Q-31.36-23.01-31.36 0.09L-31.36 0.09Q-31.36 18.18-37.06 31.91Q-42.77 45.64-52.60 54.64L-52.60 54.64L-31.54 79.32L-64.01 79.32L-73.94 67.35Q-85.35 71.34-98.53 71.34ZM-97.78 37.94L-113.00 17.91L-83.87 17.91L-76.72 26.72Q-70.32 16.98-70.32 0.09L-70.32 0.09Q-70.32-17.91-77.60-27.92Q-84.89-37.94-98.53-37.94L-98.53-37.94Q-112.07-37.94-119.40-27.92Q-126.73-17.91-126.73 0.09L-126.73 0.09Q-126.73 18.00-119.40 27.97Q-112.07 37.94-98.53 37.94L-98.53 37.94Q-98.15 37.94-97.78 37.94L-97.78 37.94ZM51.40 69.12L9.00 69.12L-27.65-69.12L14.29-69.12L25.33-15.49Q27.18-6.40 28.90 2.74Q30.62 11.88 32.29 20.97L32.29 20.97Q34.05 11.88 35.95 2.74Q37.85-6.40 39.89-15.49L39.89-15.49L52.14-69.12L89.62-69.12L101.87-15.49Q103.91-6.40 105.81 2.64Q107.71 11.69 109.47 20.69L109.47 20.69Q111.05 11.69 112.77 2.64Q114.48-6.40 116.34-15.49L116.34-15.49L127.47-69.12L169.40-69.12L132.76 69.12L90.36 69.12L74.68 5.29Q73.75 1.67 72.87-2.78Q71.99-7.24 70.88-12.62L70.88-12.62Q69.77-7.24 68.88-2.78Q68.00 1.67 67.08 5.29L67.08 5.29L51.40 69.12Z"/>
  </g>
</svg>
