<svg xmlns="http://www.w3.org/2000/svg" viewBox="0 0 32 32" width="32" height="32">
  <defs>
    <linearGradient id="a" x1="30%" y1="0%" x2="70%" y2="100%"><stop offset="0%" stop-color="#7D7CFB"/><stop offset="55%" stop-color="#6366F1"/><stop offset="100%" stop-color="#4F46E5"/></linearGradient>
    <linearGradient id="b" x1="30%" y1="0%" x2="70%" y2="100%"><stop offset="0%" stop-color="#C286FA"/><stop offset="55%" stop-color="#A855F7"/><stop offset="100%" stop-color="#9333EA"/></linearGradient>
    <radialGradient id="h" cx="35%" cy="25%" r="60%"><stop offset="0%" stop-color="#ffffff" stop-opacity="0.18"/><stop offset="60%" stop-color="#ffffff" stop-opacity="0"/></radialGradient>
    <clipPath id="c"><circle cx="12.25" cy="16" r="11"/></clipPath>
  </defs>
  <circle cx="19.75" cy="16" r="11" fill="url(#b)" opacity="0.92"/>
  <circle cx="12.25" cy="16" r="11" fill="url(#a)" opacity="0.92"/>
  <circle cx="19.75" cy="16" r="11" fill="#3D2F9E" opacity="0.58" clip-path="url(#c)"/>
  <circle cx="19.75" cy="16" r="11" fill="url(#h)"/>
  <circle cx="12.25" cy="16" r="11" fill="url(#h)"/>
  <g transform="translate(12.25 16) scale(0.04281)">
    <path fill="#ffffff" d="M0 75.10L0 75.10Q-19.82 75.10-35.89 66.41Q-51.95 57.71-61.33 40.97Q-70.70 24.22-70.70 0.10L-70.70 0.10Q-70.70-24.22-61.33-41.02Q-51.95-57.81-35.89-66.46Q-19.82-75.10 0-75.10L0-75.10Q19.82-75.10 35.84-66.46Q51.86-57.81 61.28-41.02Q70.70-24.22 70.70 0.10L70.70 0.10Q70.70 19.14 64.70 33.59Q58.69 48.05 48.34 57.52L48.34 57.52L70.51 83.50L36.33 83.50L25.88 70.90Q13.87 75.10 0 75.10ZM0.78 39.94L-15.23 18.85L15.43 18.85L22.95 28.13Q29.69 17.87 29.69 0.10L29.69 0.10Q29.69-18.85 22.02-29.39Q14.36-39.94 0-39.94L0-39.94Q-14.26-39.94-21.97-29.39Q-29.69-18.85-29.69 0.10L-29.69 0.10Q-29.69 18.95-21.97 29.44Q-14.26 39.94 0 39.94L0 39.94Q0.39 39.94 0.78 39.94L0.78 39.94Z"/>
  </g>
  <g transform="translate(19.75 16) scale(0.04281)">
    <path fill="#ffffff" d="M-20.51 72.75L-65.14 72.75L-103.71-72.75L-59.57-72.75L-47.95-16.31Q-46.00-6.74-44.19 2.88Q-42.38 12.50-40.63 22.07L-40.63 22.07Q-38.77 12.50-36.77 2.88Q-34.77-6.74-32.62-16.31L-32.62-16.31L-19.73-72.75L19.73-72.75L32.62-16.31Q34.77-6.74 36.77 2.78Q38.77 12.30 40.63 21.78L40.63 21.78Q42.29 12.30 44.09 2.78Q45.90-6.74 47.85-16.31L47.85-16.31L59.57-72.75L103.71-72.75L65.14 72.75L20.51 72.75L4.00 5.57Q3.03 1.76 2.10-2.93Q1.17-7.62 0-13.28L0-13.28Q-1.17-7.62-2.10-2.93Q-3.03 1.76-4.00 5.57L-4.00 5.57L-20.51 72.75Z"/>
  </g>
</svg>
