<svg xmlns="http://www.w3.org/2000/svg" viewBox="0 0 1200 630" width="1200" height="630">
  <defs>
    <linearGradient id="bg" x1="0%" y1="0%" x2="100%" y2="100%">
      <stop offset="0%" stop-color="#f8f7ff"/>
      <stop offset="100%" stop-color="#ede9fe"/>
    </linearGradient>
    <linearGradient id="qa" x1="0%" y1="0%" x2="100%" y2="100%">
      <stop offset="0%" stop-color="#6366f1"/>
      <stop offset="100%" stop-color="#4f46e5"/>
    </linearGradient>
    <linearGradient id="wb" x1="0%" y1="0%" x2="100%" y2="100%">
      <stop offset="0%" stop-color="#a855f7"/>
      <stop offset="100%" stop-color="#9333ea"/>
    </linearGradient>
    <linearGradient id="textgrad" x1="0%" y1="0%" x2="100%" y2="0%">
      <stop offset="0%" stop-color="#6366f1"/>
      <stop offset="100%" stop-color="#a855f7"/>
    </linearGradient>
    <clipPath id="qclip"><circle cx="78" cy="80" r="62"/></clipPath>
  </defs>

  <!-- Background -->
  <rect width="1200" height="630" fill="url(#bg)"/>

  <!-- Subtle grid lines -->
  <line x1="0" y1="210" x2="1200" y2="210" stroke="#6366f1" stroke-width="0.5" stroke-opacity="0.08"/>
  <line x1="0" y1="420" x2="1200" y2="420" stroke="#6366f1" stroke-width="0.5" stroke-opacity="0.08"/>
  <line x1="400" y1="0" x2="400" y2="630" stroke="#6366f1" stroke-width="0.5" stroke-opacity="0.08"/>
  <line x1="800" y1="0" x2="800" y2="630" stroke="#6366f1" stroke-width="0.5" stroke-opacity="0.08"/>

  <!-- Decorative orbs -->
  <circle cx="1080" cy="100" r="160" fill="#6366f1" fill-opacity="0.06"/>
  <circle cx="140" cy="530" r="120" fill="#8b5cf6" fill-opacity="0.07"/>
  <circle cx="1150" cy="500" r="90" fill="#a855f7" fill-opacity="0.06"/>

  <!-- Logo mark -->
  <circle cx="78" cy="80" r="62" fill="url(#qa)"/>
  <circle cx="122" cy="80" r="62" fill="url(#wb)"/>
  <circle cx="122" cy="80" r="62" fill="#4c1d95" opacity="0.55" clip-path="url(#qclip)"/>
  <g transform="translate(100 85) scale(0.37)">
    <path fill="#ffffff" d="M-98.53 71.34L-98.53 71.34Q-117.36 71.34-132.62 63.09Q-147.88 54.83-156.79 38.92Q-165.69 23.01-165.69 0.09L-165.69 0.09Q-165.69-23.01-156.79-38.96Q-147.88-54.92-132.62-63.13Q-117.36-71.34-98.53-71.34L-98.53-71.34Q-79.69-71.34-64.48-63.13Q-49.26-54.92-40.31-38.96Q-31.36-23.01-31.36 0.09L-31.36 0.09Q-31.36 18.18-37.06 31.91Q-42.77 45.64-52.60 54.64L-52.60 54.64L-31.54 79.32L-64.01 79.32L-73.94 67.35Q-85.35 71.34-98.53 71.34ZM-97.78 37.94L-113.00 17.91L-83.87 17.91L-76.72 26.72Q-70.32 16.98-70.32 0.09L-70.32 0.09Q-70.32-17.91-77.60-27.92Q-84.89-37.94-98.53-37.94L-98.53-37.94Q-112.07-37.94-119.40-27.92Q-126.73-17.91-126.73 0.09L-126.73 0.09Q-126.73 18.00-119.40 27.97Q-112.07 37.94-98.53 37.94L-98.53 37.94Q-98.15 37.94-97.78 37.94L-97.78 37.94ZM51.40 69.12L9.00 69.12L-27.65-69.12L14.29-69.12L25.33-15.49Q27.18-6.40 28.90 2.74Q30.62 11.88 32.29 20.97L32.29 20.97Q34.05 11.88 35.95 2.74Q37.85-6.40 39.89-15.49L39.89-15.49L52.14-69.12L89.62-69.12L101.87-15.49Q103.91-6.40 105.81 2.64Q107.71 11.69 109.47 20.69L109.47 20.69Q111.05 11.69 112.77 2.64Q114.48-6.40 116.34-15.49L116.34-15.49L127.47-69.12L169.40-69.12L132.76 69.12L90.36 69.12L74.68 5.29Q73.75 1.67 72.87-2.78Q71.99-7.24 70.88-12.62L70.88-12.62Q69.77-7.24 68.88-2.78Q68.00 1.67 67.08 5.29L67.08 5.29L51.40 69.12Z"/>
  </g>

  <!-- Brand name -->
  <text x="210" y="104" font-family="-apple-system, BlinkMacSystemFont, sans-serif" font-size="64" font-weight="700" letter-spacing="-1" fill="#1d1d1f">Qwillio</text>

  <!-- Tagline -->
  <text x="100" y="260" font-family="-apple-system, BlinkMacSystemFont, sans-serif" font-size="72" font-weight="700" letter-spacing="-2" fill="#1d1d1f">Your AI Receptionist.</text>
  <text x="100" y="350" font-family="-apple-system, BlinkMacSystemFont, sans-serif" font-size="72" font-weight="700" letter-spacing="-2" fill="url(#textgrad)">Always On.</text>

  <!-- Description -->
  <text x="100" y="430" font-family="-apple-system, BlinkMacSystemFont, sans-serif" font-size="32" fill="#6b6b6b">Answers calls, books appointments, follows up — 24/7.</text>

  <!-- Badge pills -->
  <rect x="100" y="490" width="200" height="52" rx="26" fill="#6366f1" fill-opacity="0.12"/>
  <text x="200" y="522" text-anchor="middle" font-family="-apple-system, BlinkMacSystemFont, sans-serif" font-size="22" font-weight="600" fill="#6366f1">AI Receptionist</text>

  <rect x="318" y="490" width="172" height="52" rx="26" fill="#8b5cf6" fill-opacity="0.12"/>
  <text x="404" y="522" text-anchor="middle" font-family="-apple-system, BlinkMacSystemFont, sans-serif" font-size="22" font-weight="600" fill="#8b5cf6">CRM &amp; Billing</text>

  <rect x="508" y="490" width="152" height="52" rx="26" fill="#a855f7" fill-opacity="0.12"/>
  <text x="584" y="522" text-anchor="middle" font-family="-apple-system, BlinkMacSystemFont, sans-serif" font-size="22" font-weight="600" fill="#a855f7">Auto SMS</text>

  <!-- URL -->
  <text x="1100" y="600" text-anchor="end" font-family="-apple-system, BlinkMacSystemFont, sans-serif" font-size="26" fill="#86868b">qwillio.com</text>
</svg>
